<?xml version="1.0" encoding="utf-8" standalone="no"?>
<!DOCTYPE svg PUBLIC "-//W3C//DTD SVG 1.1//EN"
  "http://www.w3.org/Graphics/SVG/1.1/DTD/svg11.dtd">
<svg xmlns:xlink="http://www.w3.org/1999/xlink" width="288pt" height="216pt" viewBox="0 0 288 216" xmlns="http://www.w3.org/2000/svg" version="1.1">
 <metadata>
  <rdf:RDF xmlns:dc="http://purl.org/dc/elements/1.1/" xmlns:cc="http://creativecommons.org/ns#" xmlns:rdf="http://www.w3.org/1999/02/22-rdf-syntax-ns#">
   <cc:Work>
    <dc:type rdf:resource="http://purl.org/dc/dcmitype/StillImage"/>
    <dc:date>2026-01-28T13:53:08.382809</dc:date>
    <dc:format>image/svg+xml</dc:format>
    <dc:creator>
     <cc:Agent>
      <dc:title>Matplotlib v3.10.8, https://matplotlib.org/</dc:title>
     </cc:Agent>
    </dc:creator>
   </cc:Work>
  </rdf:RDF>
 </metadata>
 <defs>
  <style type="text/css">*{stroke-linejoin: round; stroke-linecap: butt}</style>
 </defs>
 <g id="figure_1">
  <g id="patch_1">
   <path d="M 0 216 
L 288 216 
L 288 0 
L 0 0 
L 0 216 
z
" style="fill: none"/>
  </g>
  <g id="axes_1">
   <g id="line2d_1">
    <path d="M 13.568659 108 
L 21.695223 108 
L 22.507879 105.146227 
L 44.4496 104.518183 
L 60.702726 103.840284 
L 72.892571 103.129339 
L 82.644447 102.358341 
L 90.771011 101.501675 
L 97.272261 100.603928 
L 102.960855 99.588072 
L 107.836793 98.467176 
L 111.900075 97.278448 
L 115.1507 96.092693 
L 117.588669 95.017896 
L 120.026638 93.732857 
L 122.464607 92.170444 
L 124.08992 90.927978 
L 125.715233 89.479024 
L 127.340545 87.769186 
L 128.965858 85.724011 
L 130.591171 83.239441 
L 132.216483 80.166913 
L 133.841796 76.290159 
L 135.467109 71.290825 
L 136.279765 68.232366 
L 137.092421 64.707353 
L 137.905078 60.634923 
L 138.717734 55.93598 
L 140.343047 44.523378 
L 141.968359 31.6073 
L 142.781016 26.1876 
L 143.593672 23.006153 
L 144.406328 192.993847 
L 145.218984 189.8124 
L 146.031641 184.3927 
L 148.46961 165.442752 
L 150.094922 155.365077 
L 151.720235 147.767634 
L 153.345548 142.044136 
L 154.97086 137.653915 
L 156.596173 134.211742 
L 158.221486 131.455331 
L 159.846798 129.205817 
L 161.472111 127.339193 
L 163.097424 125.767673 
L 164.722736 124.42778 
L 167.160705 122.753057 
L 169.598674 121.384268 
L 172.036643 120.245451 
L 175.287269 118.995477 
L 178.537894 117.975445 
L 182.601176 116.937562 
L 187.477114 115.944431 
L 193.165708 115.031875 
L 199.666958 114.215268 
L 207.793522 113.426942 
L 217.545398 112.709702 
L 229.735243 112.041699 
L 245.175713 111.425975 
L 265.492121 110.853773 
L 266.304777 108 
L 274.431341 108 
L 274.431341 108 
" clip-path="url(#p92f1e84198)" style="fill: none; stroke: #ffffff; stroke-width: 10; stroke-linecap: square"/>
   </g>
  </g>
 </g>
 <defs>
  <clipPath id="p92f1e84198">
   <rect x="14.04" y="14.04" width="259.92" height="187.92"/>
  </clipPath>
 </defs>
</svg>
