<?xml version="1.0" encoding="utf-8" standalone="no"?>
<!DOCTYPE svg PUBLIC "-//W3C//DTD SVG 1.1//EN"
  "http://www.w3.org/Graphics/SVG/1.1/DTD/svg11.dtd">
<svg xmlns:xlink="http://www.w3.org/1999/xlink" width="274.32pt" height="202.32pt" viewBox="0 0 274.32 202.32" xmlns="http://www.w3.org/2000/svg" version="1.1">
 <metadata>
  <rdf:RDF xmlns:dc="http://purl.org/dc/elements/1.1/" xmlns:cc="http://creativecommons.org/ns#" xmlns:rdf="http://www.w3.org/1999/02/22-rdf-syntax-ns#">
   <cc:Work>
    <dc:type rdf:resource="http://purl.org/dc/dcmitype/StillImage"/>
    <dc:date>2026-01-28T13:53:08.378906</dc:date>
    <dc:format>image/svg+xml</dc:format>
    <dc:creator>
     <cc:Agent>
      <dc:title>Matplotlib v3.10.8, https://matplotlib.org/</dc:title>
     </cc:Agent>
    </dc:creator>
   </cc:Work>
  </rdf:RDF>
 </metadata>
 <defs>
  <style type="text/css">*{stroke-linejoin: round; stroke-linecap: butt}</style>
 </defs>
 <g id="figure_1">
  <g id="patch_1">
   <path d="M 0 202.32 
L 274.32 202.32 
L 274.32 0 
L 0 0 
L 0 202.32 
z
" style="fill: none"/>
  </g>
  <g id="axes_1">
   <g id="line2d_1">
    <path d="M 6.728659 101.16 
L 14.855223 101.16 
L 15.667879 98.306227 
L 37.6096 97.678183 
L 53.862726 97.000284 
L 66.052571 96.289339 
L 75.804447 95.518341 
L 83.931011 94.661675 
L 90.432261 93.763928 
L 96.120855 92.748072 
L 100.996793 91.627176 
L 105.060075 90.438448 
L 108.3107 89.252693 
L 110.748669 88.177896 
L 113.186638 86.892857 
L 115.624607 85.330444 
L 117.24992 84.087978 
L 118.875233 82.639024 
L 120.500545 80.929186 
L 122.125858 78.884011 
L 123.751171 76.399441 
L 125.376483 73.326913 
L 127.001796 69.450159 
L 128.627109 64.450825 
L 129.439765 61.392366 
L 130.252421 57.867353 
L 131.065078 53.794923 
L 131.877734 49.09598 
L 133.503047 37.683378 
L 135.128359 24.7673 
L 135.941016 19.3476 
L 136.753672 16.166153 
L 137.566328 16.166153 
L 138.378984 19.3476 
L 139.191641 24.7673 
L 141.62961 43.717248 
L 143.254922 53.794923 
L 144.880235 61.392366 
L 146.505548 67.115864 
L 148.13086 71.506085 
L 149.756173 74.948258 
L 151.381486 77.704669 
L 153.006798 79.954183 
L 154.632111 81.820807 
L 156.257424 83.392327 
L 157.882736 84.73222 
L 160.320705 86.406943 
L 162.758674 87.775732 
L 165.196643 88.914549 
L 168.447269 90.164523 
L 171.697894 91.184555 
L 175.761176 92.222438 
L 180.637114 93.215569 
L 186.325708 94.128125 
L 192.826958 94.944732 
L 200.953522 95.733058 
L 210.705398 96.450298 
L 222.895243 97.118301 
L 238.335713 97.734025 
L 258.652121 98.306227 
L 259.464777 101.16 
L 267.591341 101.16 
L 267.591341 101.16 
" clip-path="url(#pf5d54f35b4)" style="fill: none; stroke: #ffffff; stroke-width: 10; stroke-linecap: square"/>
   </g>
  </g>
 </g>
 <defs>
  <clipPath id="pf5d54f35b4">
   <rect x="7.2" y="7.2" width="259.92" height="187.92"/>
  </clipPath>
 </defs>
</svg>
